Coordinates
version=1
nRows=13
nColumns=34
inDegrees=yes

Units are S.I. units (second, meters, Newtons, ...)
If the header above contains a line with 'inDegrees', this indicates whether rotational values are in degrees (yes) or radians (no).

endheader
time	pelvis_tilt	pelvis_list	pelvis_rotation	pelvis_tx	pelvis_ty	pelvis_tz	hip_flexion_r	hip_adduction_r	hip_rotation_r	knee_angle_r	ankle_angle_r	subtalar_angle_r	mtp_angle_r	hip_flexion_l	hip_adduction_l	hip_rotation_l	knee_angle_l	ankle_angle_l	subtalar_angle_l	mtp_angle_l	lumbar_extension	lumbar_bending	lumbar_rotation	arm_flex_r	arm_add_r	arm_rot_r	elbow_flex_r	pro_sup_r	arm_flex_l	arm_add_l	arm_rot_l	elbow_flex_l	pro_sup_l
      0.00000000	      0.76850213	     -2.64809378	    153.73107091	      0.28599867	      1.06931251	     -0.15415979	     18.59125866	     -6.35712056	     -3.18021220	     93.49590357	      0.73398504	    -11.81758201	      0.00000000	     15.38351959	     -8.04494354	     -2.74787830	     95.23131747	     -7.18186799	    -11.46826510	      0.00000000	     -1.59378816	      0.04105552	      4.19581997	      3.65659792	    -45.57448938	    -43.86510727	    150.00035077	     87.77910979	     20.51160423	    -42.10877702	    -25.79543256	    133.75976448	     85.76079407
      0.01666670	      0.66290143	     -0.93985716	    153.62675238	      0.28671182	      1.07521620	     -0.15365575	     20.37351870	     -4.48481901	     -3.04713298	     98.47852680	     -5.12453371	    -14.83155416	      0.00000000	     18.01205520	     -9.24129058	     -2.54434925	     99.68751822	    -10.79975325	    -17.44259028	      0.00000000	     -3.71335357	      1.43293101	      3.40824111	      4.97885299	    -45.79589636	    -46.73464764	    150.00035077	     95.57583348	     17.66368007	    -45.06162611	    -29.77380066	    136.35161501	     96.19524716
      0.03333330	      0.52525974	     -0.96432146	    153.57823753	      0.28762143	      1.07620643	     -0.15411532	     20.74572434	     -3.77162921	     -2.69696514	     98.25938926	     -6.42729609	    -15.49409522	      0.00000000	     18.71856407	     -8.57986396	     -2.71567122	     99.83967164	    -11.21103392	    -17.08722293	      0.00000000	     -3.55138931	      0.70066599	      3.77041968	      5.19091682	    -45.53489093	    -46.68780802	    148.82893882	     95.76402150	     17.69075458	    -45.35152155	    -29.36708728	    137.01100203	     96.51432295
      0.05000000	      0.88793016	     -1.07626282	    153.74768744	      0.28745295	      1.07642164	     -0.15417901	     21.66448362	     -3.41139806	     -3.06506979	     97.35436283	     -8.68880000	    -16.79463001	      0.00000000	     19.12527213	     -8.15840552	     -2.43235236	     98.96046326	    -12.26516992	    -19.30384404	      0.00000000	     -3.08557679	      0.45271779	      3.57352216	      5.20936809	    -45.24341141	    -46.67159598	    148.04655513	     95.89232694	     17.49605371	    -45.95035849	    -29.20263766	    137.49040078	     96.84113180
      0.06666670	      1.56039412	     -1.12478382	    154.08551777	      0.28724580	      1.07676828	     -0.15365754	     22.37880940	     -2.99654732	     -3.64935960	     96.53287795	    -10.22101896	    -17.35740629	      0.00000000	     19.99590003	     -7.95071606	     -1.96345344	     98.68977843	    -12.15690519	    -19.70246993	      0.00000000	     -2.40396284	      0.65998725	      3.17986837	      4.90458453	    -44.76607375	    -46.64682965	    147.56476902	     95.96388773	     17.30676076	    -45.92121231	    -29.37522293	    137.39018466	     97.10591706
      0.08333330	      1.94621981	     -1.29296313	    154.29064795	      0.28719662	      1.07700874	     -0.15329335	     22.94777660	     -2.93262801	     -3.91187094	     96.61870632	    -11.28744645	    -18.29255776	      0.00000000	     20.69475971	     -7.68631867	     -1.71240682	     98.52303674	    -12.38389925	    -20.14147859	      0.00000000	     -2.06179218	      0.74382538	      2.91363457	      4.75247713	    -44.37058585	    -46.73830635	    147.52299138	     95.99664935	     17.01227870	    -45.75385053	    -29.47188342	    137.27603792	     97.34022340
      0.10000000	      2.25512713	     -1.33707585	    154.59201908	      0.28708050	      1.07734854	     -0.15296380	     23.12629704	     -2.85776728	     -4.26335663	     96.57432429	    -11.94114001	    -18.72951715	      0.00000000	     21.22436605	     -7.65799562	     -1.41898288	     98.58506534	    -12.43363343	    -20.11000145	      0.00000000	     -1.84111017	      0.91211395	      2.58265062	      4.60624664	    -44.14617731	    -46.89532784	    147.52962869	     96.02052900	     16.83874473	    -45.43493836	    -29.47487656	    137.17397753	     97.50749699
      0.11666670	      2.40753109	     -1.39217083	    154.74427001	      0.28703288	      1.07767860	     -0.15275832	     23.27361291	     -2.88202906	     -4.40486141	     96.65912606	    -12.50283607	    -18.92894218	      0.00000000	     21.50711642	     -7.53678379	     -1.24195541	     98.61076301	    -12.55222186	    -20.10684074	      0.00000000	     -1.78860467	      0.98765613	      2.45870774	      4.56346656	    -44.04766641	    -47.04152514	    147.67514262	     96.03897464	     16.72544137	    -45.20210138	    -29.45423048	    137.12929711	     97.59214899
      0.13333330	      2.44186237	     -1.41453515	    154.76261197	      0.28695861	      1.07793258	     -0.15289716	     23.26787306	     -2.86924602	     -4.40904423	     96.67301822	    -12.50891662	    -18.93161139	      0.00000000	     21.49369032	     -7.53227851	     -1.25169432	     98.62648669	    -12.55514538	    -20.10538116	      0.00000000	     -1.79972120	      0.98909651	      2.45264931	      4.56199021	    -44.04500594	    -47.04282660	    147.67705391	     96.03935142	     16.72306692	    -45.19604912	    -29.45181873	    137.12720715	     97.59308847
      0.15000000	      2.68826564	     -1.42709474	    154.99190790	      0.28683695	      1.07791145	     -0.15277213	     23.47045322	     -2.79007528	     -4.61451792	     96.63775165	    -13.12805417	    -19.42569047	      0.00000000	     21.83342730	     -7.55927910	     -0.99747758	     98.72633414	    -12.64774097	    -20.15008224	      0.00000000	     -1.61945690	      1.10403101	      2.25487515	      4.44117154	    -43.85241688	    -47.37226045	    148.17162112	     96.09995262	     16.61221556	    -44.80823285	    -29.47230604	    137.11408752	     97.68220800
      0.16666670	      2.71975850	     -1.43681874	    155.00195246	      0.28666006	      1.07804420	     -0.15294532	     23.46299291	     -2.78433513	     -4.61202388	     96.65986279	    -13.13370192	    -19.42294150	      0.00000000	     21.80702466	     -7.55998894	     -0.99613399	     98.75145099	    -12.64974161	    -20.15086944	      0.00000000	     -1.61831890	      1.09850341	      2.25614051	      4.43960840	    -43.85222425	    -47.37394593	    148.17343992	     96.10049247	     16.61094471	    -44.80658907	    -29.47267762	    137.11416601	     97.68266985
      0.18333330	      2.70914346	     -1.43220265	    155.01459738	      0.28655804	      1.07793443	     -0.15319557	     23.41282496	     -2.75249226	     -4.58610818	     96.75962562	    -13.17244730	    -19.39779084	      0.00000000	     21.77625493	     -7.58675623	     -0.98149037	     98.84130968	    -12.65645808	    -20.16898351	      0.00000000	     -1.56079052	      1.05972039	      2.25353086	      4.43155883	    -43.85151265	    -47.38498576	    148.19377352	     96.10290644	     16.60723229	    -44.79850035	    -29.47886877	    137.11995232	     97.68380266
      0.20000000	      2.74559658	     -1.44567341	    155.00915393	      0.28629556	      1.07790896	     -0.15342451	     23.37280550	     -2.74801495	     -4.57706865	     96.79260904	    -13.18178751	    -19.39212853	      0.00000000	     21.77479967	     -7.59303590	     -0.98014314	     98.85568375	    -12.65922387	    -20.17469962	      0.00000000	     -1.55852393	      1.05457814	      2.25105396	      4.43007405	    -43.85049004	    -47.38635237	    148.19662900	     96.10348131	     16.60851399	    -44.79709451	    -29.47982230	    137.12004547	     97.68395207
